<svg width="33" height="33" viewBox="0 0 33 33" fill="none" xmlns="http://www.w3.org/2000/svg">
<circle cx="16.5" cy="16.5" r="16.5" fill="#00095B"/>
<g clip-path="url(#clip0_230_281)">
<path fill-rule="evenodd" clip-rule="evenodd" d="M12.977 9.71063C13.759 9.67463 14.0083 9.66663 16.0003 9.66663C17.9923 9.66663 18.2417 9.67529 19.023 9.71063C19.8043 9.74596 20.3377 9.87063 20.8043 10.0513C21.293 10.236 21.7363 10.5246 22.103 10.898C22.4763 11.264 22.7643 11.7066 22.9483 12.196C23.1297 12.6626 23.2537 13.196 23.2897 13.976C23.3257 14.7593 23.3337 15.0086 23.3337 17C23.3337 18.992 23.325 19.2413 23.2897 20.0233C23.2543 20.8033 23.1297 21.3366 22.9483 21.8033C22.7643 22.2927 22.4758 22.7361 22.103 23.1026C21.7363 23.476 21.293 23.764 20.8043 23.948C20.3377 24.1293 19.8043 24.2533 19.0243 24.2893C18.2417 24.3253 17.9923 24.3333 16.0003 24.3333C14.0083 24.3333 13.759 24.3246 12.977 24.2893C12.197 24.254 11.6637 24.1293 11.197 23.948C10.7076 23.7639 10.2642 23.4755 9.89766 23.1026C9.52458 22.7364 9.23587 22.2932 9.05166 21.804C8.87099 21.3373 8.74699 20.804 8.71099 20.024C8.67499 19.2406 8.66699 18.9913 8.66699 17C8.66699 15.008 8.67566 14.7586 8.71099 13.9773C8.74633 13.196 8.87099 12.6626 9.05166 12.196C9.23614 11.7067 9.52507 11.2635 9.89833 10.8973C10.2644 10.5243 10.7073 10.2356 11.1963 10.0513C11.663 9.87063 12.1963 9.74663 12.9763 9.71063H12.977ZM18.9637 11.0306C18.1903 10.9953 17.9583 10.988 16.0003 10.988C14.0423 10.988 13.8103 10.9953 13.037 11.0306C12.3217 11.0633 11.9337 11.1826 11.675 11.2833C11.333 11.4166 11.0883 11.5746 10.8317 11.8313C10.5884 12.068 10.4011 12.3561 10.2837 12.6746C10.183 12.9333 10.0637 13.3213 10.031 14.0366C9.99566 14.81 9.98833 15.042 9.98833 17C9.98833 18.958 9.99566 19.19 10.031 19.9633C10.0637 20.6786 10.183 21.0666 10.2837 21.3253C10.401 21.6433 10.5883 21.932 10.8317 22.1686C11.0683 22.412 11.357 22.5993 11.675 22.7166C11.9337 22.8173 12.3217 22.9366 13.037 22.9693C13.8103 23.0046 14.0417 23.012 16.0003 23.012C17.959 23.012 18.1903 23.0046 18.9637 22.9693C19.679 22.9366 20.067 22.8173 20.3257 22.7166C20.6677 22.5833 20.9123 22.4253 21.169 22.1686C21.4123 21.932 21.5997 21.6433 21.717 21.3253C21.8177 21.0666 21.937 20.6786 21.9697 19.9633C22.005 19.19 22.0123 18.958 22.0123 17C22.0123 15.042 22.005 14.81 21.9697 14.0366C21.937 13.3213 21.8177 12.9333 21.717 12.6746C21.5837 12.3326 21.4257 12.088 21.169 11.8313C20.9323 11.588 20.6441 11.4008 20.3257 11.2833C20.067 11.1826 19.679 11.0633 18.9637 11.0306V11.0306ZM15.0637 19.2606C15.5868 19.4784 16.1692 19.5078 16.7116 19.3438C17.254 19.1798 17.7226 18.8326 18.0374 18.3615C18.3522 17.8903 18.4937 17.3245 18.4377 16.7607C18.3817 16.1969 18.1317 15.6699 17.7303 15.27C17.4745 15.0143 17.1651 14.8185 16.8245 14.6967C16.484 14.5749 16.1206 14.5302 15.7607 14.5657C15.4007 14.6012 15.0531 14.7161 14.7429 14.902C14.4326 15.088 14.1675 15.3405 13.9665 15.6412C13.7656 15.9419 13.6338 16.2835 13.5807 16.6413C13.5276 16.999 13.5544 17.3642 13.6594 17.7103C13.7643 18.0565 13.9446 18.375 14.1875 18.6431C14.4303 18.9112 14.7295 19.1221 15.0637 19.2606ZM13.335 14.3346C13.685 13.9846 14.1005 13.707 14.5579 13.5175C15.0152 13.3281 15.5053 13.2306 16.0003 13.2306C16.4953 13.2306 16.9855 13.3281 17.4428 13.5175C17.9001 13.707 18.3156 13.9846 18.6657 14.3346C19.0157 14.6846 19.2933 15.1002 19.4828 15.5575C19.6722 16.0148 19.7697 16.505 19.7697 17C19.7697 17.495 19.6722 17.9851 19.4828 18.4424C19.2933 18.8997 19.0157 19.3153 18.6657 19.6653C17.9588 20.3722 17 20.7693 16.0003 20.7693C15.0006 20.7693 14.0419 20.3722 13.335 19.6653C12.6281 18.9584 12.231 17.9997 12.231 17C12.231 16.0003 12.6281 15.0415 13.335 14.3346V14.3346ZM20.6057 13.792C20.6924 13.7101 20.7618 13.6117 20.8099 13.5026C20.8579 13.3935 20.8835 13.2758 20.8853 13.1566C20.887 13.0374 20.8648 12.919 20.82 12.8085C20.7752 12.698 20.7086 12.5976 20.6243 12.5133C20.54 12.429 20.4396 12.3625 20.3291 12.3176C20.2186 12.2728 20.1003 12.2506 19.981 12.2523C19.8618 12.2541 19.7441 12.2797 19.635 12.3278C19.5259 12.3758 19.4275 12.4452 19.3457 12.532C19.1865 12.7006 19.0994 12.9247 19.1028 13.1566C19.1062 13.3885 19.1998 13.6099 19.3638 13.7739C19.5277 13.9378 19.7492 14.0314 19.981 14.0348C20.2129 14.0382 20.437 13.9511 20.6057 13.792V13.792Z" fill="white"/>
</g>
<defs>
<clipPath id="clip0_230_281">
<rect width="16" height="16" fill="white" transform="translate(8 9)"/>
</clipPath>
</defs>
</svg>
