<svg width="33" height="33" viewBox="0 0 33 33" fill="none" xmlns="http://www.w3.org/2000/svg">
<circle cx="16.5" cy="16.5" r="16.5" fill="#00095B"/>
<path fill-rule="evenodd" clip-rule="evenodd" d="M15.2857 13.9794H17.7617V15.2127C18.1183 14.5034 19.033 13.866 20.407 13.866C23.041 13.866 23.6663 15.278 23.6663 17.8687V22.6667H20.9997V18.4587C20.9997 16.9834 20.643 16.1514 19.735 16.1514C18.4757 16.1514 17.9523 17.048 17.9523 18.458V22.6667H15.2857V13.9794V13.9794ZM10.713 22.5534H13.3797V13.866H10.713V22.5534V22.5534ZM13.7617 11.0334C13.7618 11.2569 13.7174 11.4782 13.6313 11.6844C13.5451 11.8907 13.4188 12.0777 13.2597 12.2347C12.9373 12.5551 12.5009 12.7345 12.0463 12.7334C11.5926 12.7331 11.1572 12.5542 10.8343 12.2354C10.6758 12.0778 10.5499 11.8906 10.4639 11.6843C10.3779 11.4781 10.3334 11.2569 10.333 11.0334C10.333 10.582 10.513 10.15 10.835 9.83137C11.1576 9.51215 11.5932 9.33317 12.047 9.33337C12.5017 9.33337 12.9377 9.51271 13.2597 9.83137C13.581 10.15 13.7617 10.582 13.7617 11.0334Z" fill="white"/>
</svg>
