<svg width="33" height="33" viewBox="0 0 33 33" fill="none" xmlns="http://www.w3.org/2000/svg">
<circle cx="16.5" cy="16.5" r="16.5" fill="#00095B"/>
<g clip-path="url(#clip0_230_300)">
<path fill-rule="evenodd" clip-rule="evenodd" d="M20.61 17.6566C20.4113 17.5573 19.4373 17.0786 19.256 17.012C19.0747 16.946 18.9427 16.9133 18.81 17.112C18.678 17.3093 18.2987 17.756 18.1833 17.888C18.0673 18.0206 17.952 18.0366 17.754 17.938C17.556 17.838 16.9173 17.6293 16.1607 16.9546C15.572 16.4293 15.174 15.7806 15.0587 15.582C14.9433 15.384 15.046 15.2766 15.1453 15.178C15.2347 15.0893 15.3433 14.9466 15.4427 14.8313C15.542 14.7153 15.5747 14.6326 15.6407 14.5C15.7073 14.368 15.674 14.2526 15.624 14.1533C15.5747 14.054 15.1787 13.0786 15.0133 12.682C14.8527 12.296 14.6893 12.3486 14.568 12.342C14.452 12.3366 14.32 12.3353 14.188 12.3353C14.056 12.3353 13.8413 12.3846 13.66 12.5833C13.478 12.7813 12.9667 13.2606 12.9667 14.236C12.9667 15.2106 13.676 16.1526 13.7753 16.2853C13.8747 16.4173 15.172 18.4186 17.1593 19.2766C17.6327 19.4806 18.0013 19.6026 18.2887 19.6933C18.7633 19.8446 19.1953 19.8233 19.5367 19.772C19.9167 19.7153 20.7087 19.2926 20.874 18.83C21.0387 18.3673 21.0387 17.9706 20.9893 17.888C20.94 17.8053 20.808 17.756 20.6093 17.6566H20.61ZM16.9953 22.592H16.9927C15.8123 22.5922 14.6536 22.2749 13.638 21.6733L13.398 21.5306L10.9033 22.1853L11.5693 19.7533L11.4127 19.504C10.7528 18.4535 10.4035 17.2378 10.4053 15.9973C10.4067 12.364 13.3627 9.40796 16.998 9.40796C18.758 9.40796 20.4127 10.0946 21.6567 11.34C22.2703 11.951 22.7566 12.6777 23.0875 13.4779C23.4185 14.2781 23.5874 15.136 23.5847 16.002C23.5833 19.6353 20.6273 22.592 16.9953 22.592V22.592ZM22.6033 10.394C21.8688 9.65458 20.9948 9.06832 20.0321 8.66916C19.0693 8.27001 18.0369 8.06589 16.9947 8.06863C12.6253 8.06863 9.068 11.6253 9.06667 15.9966C9.06464 17.3878 9.42958 18.7549 10.1247 19.96L9 24.0686L13.2027 22.966C14.3652 23.5994 15.6681 23.9313 16.992 23.9313H16.9953C21.3647 23.9313 24.922 20.3746 24.9233 16.0026C24.9266 14.9608 24.7232 13.9287 24.325 12.966C23.9267 12.0033 23.3416 11.1291 22.6033 10.394" fill="#F2F2F2"/>
</g>
<defs>
<clipPath id="clip0_230_300">
<rect width="16" height="16" fill="white" transform="translate(9 8.0686)"/>
</clipPath>
</defs>
</svg>
