<svg width="33" height="33" viewBox="0 0 33 33" fill="none" xmlns="http://www.w3.org/2000/svg">
<circle cx="16.5" cy="16.5" r="16.5" fill="#00095B"/>
<g clip-path="url(#clip0_230_285)">
<path d="M23.6671 13.338C23.5765 13.0148 23.4 12.7222 23.1564 12.4913C22.9059 12.2533 22.5989 12.0831 22.2644 11.9966C21.0124 11.6666 15.9964 11.6666 15.9964 11.6666C13.9053 11.6428 11.8147 11.7475 9.73641 11.98C9.40187 12.0728 9.09545 12.2468 8.84441 12.4866C8.59774 12.724 8.41908 13.0166 8.32574 13.3373C8.10154 14.5451 7.99261 15.7715 8.00041 17C7.99241 18.2273 8.10108 19.4533 8.32574 20.6626C8.41708 20.982 8.59508 21.2733 8.84241 21.5086C9.08974 21.744 9.39774 21.914 9.73641 22.004C11.0051 22.3333 15.9964 22.3333 15.9964 22.3333C18.0902 22.3571 20.1835 22.2525 22.2644 22.02C22.5989 21.9335 22.9059 21.7633 23.1564 21.5253C23.3999 21.2945 23.5762 21.0018 23.6664 20.6786C23.8965 19.4713 24.0083 18.2444 24.0004 17.0153C24.0177 15.781 23.906 14.5483 23.6671 13.3373V13.338ZM14.4017 19.2826V14.718L18.5751 17.0006L14.4017 19.2826Z" fill="white"/>
</g>
<defs>
<clipPath id="clip0_230_285">
<rect width="16" height="16" fill="white" transform="translate(8 9)"/>
</clipPath>
</defs>
</svg>
