<svg width="24" height="25" viewBox="0 0 24 25" fill="none" xmlns="http://www.w3.org/2000/svg">
<path d="M16.57 22.9314C16.8356 22.9329 17.0989 22.8816 17.3444 22.7803C17.5899 22.679 17.8128 22.5298 18 22.3414L20.71 19.6314C20.8963 19.4441 21.0008 19.1906 21.0008 18.9264C21.0008 18.6622 20.8963 18.4088 20.71 18.2214L16.71 14.2214C16.5227 14.0352 16.2692 13.9306 16.005 13.9306C15.7408 13.9306 15.4874 14.0352 15.3 14.2214L13.7 15.8114C12.5923 15.5161 11.5663 14.9723 10.7 14.2214C9.95115 13.3537 9.40766 12.3283 9.11003 11.2214L10.7 9.62142C10.8863 9.43405 10.9908 9.1806 10.9908 8.91642C10.9908 8.65223 10.8863 8.39878 10.7 8.21142L6.70003 4.21142C6.51267 4.02516 6.25922 3.92062 5.99503 3.92062C5.73085 3.92062 5.4774 4.02516 5.29003 4.21142L2.59003 6.93142C2.40167 7.11866 2.25248 7.34154 2.15118 7.58706C2.04988 7.83258 1.9985 8.09582 2.00003 8.36142C2.09076 12.2037 3.62611 15.8707 6.30003 18.6314C9.06075 21.3053 12.7277 22.8407 16.57 22.9314V22.9314ZM6.00003 6.34142L8.59003 8.93142L7.30003 10.2214C7.17785 10.3359 7.08636 10.4792 7.03395 10.6381C6.98153 10.7971 6.96987 10.9667 7.00003 11.1314C7.3738 12.8018 8.16514 14.3501 9.30003 15.6314C10.5804 16.7678 12.1291 17.5593 13.8 17.9314C13.9622 17.9653 14.1303 17.9584 14.2891 17.9113C14.4479 17.8641 14.5926 17.7783 14.71 17.6614L16 16.3414L18.59 18.9314L16.59 20.9314C13.2738 20.846 10.1095 19.5225 7.72003 17.2214C5.41295 14.8309 4.08564 11.6625 4.00003 8.34142L6.00003 6.34142ZM20 11.9314H22C22.026 10.7424 21.8109 9.56047 21.3678 8.45682C20.9247 7.35317 20.2627 6.35066 19.4217 5.50971C18.5808 4.66876 17.5783 4.00678 16.4746 3.56367C15.371 3.12056 14.189 2.90548 13 2.93142V4.93142C13.9279 4.89932 14.8525 5.05843 15.7163 5.39885C16.5801 5.73927 17.3647 6.25374 18.0212 6.91026C18.6777 7.56678 19.1922 8.35132 19.5326 9.21512C19.873 10.0789 20.0321 11.0035 20 11.9314Z" fill="#00095B"/>
<path d="M13 8.9314C15.1 8.9314 16 9.8314 16 11.9314H18C18 8.7114 16.22 6.9314 13 6.9314V8.9314Z" fill="#00095B"/>
</svg>
