<svg width="24" height="24" viewBox="0 0 24 24" fill="none" xmlns="http://www.w3.org/2000/svg">
<path d="M18 2.56194C18 2.41465 17.9377 2.27339 17.8269 2.16923C17.7161 2.06508 17.5658 2.00657 17.4091 2.00657H14.4545C12.9668 1.93691 11.5102 2.42353 10.4029 3.3601C9.29573 4.29667 8.62793 5.60705 8.54545 7.00493V10.0039H5.59091C5.43419 10.0039 5.28389 10.0625 5.17307 10.1666C5.06226 10.2708 5 10.412 5 10.5593V13.4473C5 13.5945 5.06226 13.7358 5.17307 13.84C5.28389 13.9441 5.43419 14.0026 5.59091 14.0026H8.54545V21.4446C8.54545 21.5919 8.60771 21.7332 8.71853 21.8373C8.82934 21.9415 8.97964 22 9.13636 22H12.6818C12.8385 22 12.9888 21.9415 13.0997 21.8373C13.2105 21.7332 13.2727 21.5919 13.2727 21.4446V14.0026H16.3691C16.5005 14.0044 16.6288 13.965 16.7337 13.8905C16.8385 13.8161 16.914 13.7109 16.9482 13.5917L17.7991 10.7037C17.8226 10.6217 17.8258 10.5356 17.8083 10.4522C17.7909 10.3688 17.7533 10.2903 17.6985 10.2227C17.6437 10.1551 17.5732 10.1003 17.4922 10.0623C17.4113 10.0244 17.3222 10.0044 17.2318 10.0039H13.2727V7.00493C13.3021 6.72999 13.4395 6.47522 13.658 6.29038C13.8766 6.10553 14.1605 6.00387 14.4545 6.00525H17.4091C17.5658 6.00525 17.7161 5.94674 17.8269 5.84259C17.9377 5.73844 18 5.59718 18 5.44988V2.56194Z" fill="#85828B"/>
</svg>
