<svg width="89" height="41" viewBox="0 0 89 41" fill="none" xmlns="http://www.w3.org/2000/svg">
<rect width="89" height="41" fill="#00095B"/>
<path d="M4.82715 22.1083H10.7588V15.6068H15.9134C18.141 15.6068 19.6304 15.0931 20.3816 14.0656C21.1414 13.0295 21.5213 11.756 21.5213 10.245C21.5213 8.70812 21.163 7.3871 20.4463 6.28192C19.7383 5.17675 18.3094 4.62417 16.1595 4.62417H4.82715V22.1083ZM15.5508 22.1083H21.9616L17.4935 13.8713L11.6395 14.0656L15.5508 22.1083ZM10.7588 12.0193V8.61315H14.1779C14.7133 8.61315 15.0802 8.75561 15.2788 9.04054C15.486 9.31683 15.5896 9.74422 15.5896 10.3227C15.5896 10.9098 15.486 11.3415 15.2788 11.6178C15.0802 11.8855 14.7133 12.0193 14.1779 12.0193H10.7588Z" fill="#F2F2F2"/>
<path d="M31.9072 22.2637C35.4472 22.2637 37.8431 21.4824 39.0951 19.9196C40.3557 18.3568 40.986 16.1723 40.986 13.3662C40.986 10.5601 40.3557 8.37571 39.0951 6.81292C37.8431 5.25014 35.4472 4.46875 31.9072 4.46875C28.3672 4.46875 25.9669 5.25014 24.7063 6.81292C23.4543 8.37571 22.8284 10.5601 22.8284 13.3662C22.8284 16.1723 23.4543 18.3568 24.7063 19.9196C25.9669 21.4824 28.3672 22.2637 31.9072 22.2637ZM31.9072 18.2748C30.9229 18.2748 30.1458 18.046 29.5759 17.5884C29.0061 17.1221 28.7212 15.7147 28.7212 13.3662C28.7212 10.9746 29.0061 9.55859 29.5759 9.11824C30.1458 8.6779 30.9229 8.45773 31.9072 8.45773C32.8915 8.45773 33.6685 8.6779 34.2384 9.11824C34.8082 9.55859 35.0932 10.9746 35.0932 13.3662C35.0932 15.7147 34.8082 17.1221 34.2384 17.5884C33.6685 18.046 32.8915 18.2748 31.9072 18.2748Z" fill="#F2F2F2"/>
<path d="M42.6184 22.1083H52.9924C55.6085 22.1083 57.4001 21.4435 58.3671 20.1138C59.3428 18.7755 59.8306 16.522 59.8306 13.3533C59.8306 10.1846 59.3428 7.93968 58.3671 6.61865C57.4001 5.289 55.6085 4.62417 52.9924 4.62417H42.6184V22.1083ZM48.5242 18.1194V8.61315H51.3735C52.2714 8.61315 52.919 8.82468 53.3162 9.24776C53.722 9.6622 53.9249 11.0307 53.9249 13.3533C53.9249 15.6932 53.722 17.0746 53.3162 17.4977C52.919 17.9121 52.2714 18.1194 51.3735 18.1194H48.5242Z" fill="#F2F2F2"/>
<path d="M62.0075 22.1083H67.9003V4.62417H62.0075V22.1083Z" fill="#F2F2F2"/>
<path d="M70.3897 22.1083H84.2087V18.1194H76.3084V15.2183H83.5611V11.4236H76.3084V8.61315H84.2087V4.62417H70.3897V22.1083Z" fill="#F2F2F2"/>
<path d="M4.46875 36.4146H8.6916C9.9577 36.4146 10.8638 36.0522 11.41 35.3273C11.9611 34.6024 12.2367 33.2891 12.2367 31.3874C12.2367 29.4808 11.9611 28.1676 11.41 27.4476C10.8638 26.7227 9.9577 26.3602 8.6916 26.3602H4.46875V36.4146ZM5.98063 35.3571V27.4178H8.28197C9.10122 27.4178 9.71193 27.6611 10.1141 28.1477C10.5163 28.6293 10.7174 29.7092 10.7174 31.3874C10.7174 33.0657 10.5163 34.1481 10.1141 34.6346C9.71193 35.1163 9.10122 35.3571 8.28197 35.3571H5.98063Z" fill="#CCCCCC"/>
<path d="M13.4871 36.4146H20.1453V35.3571H15.0139V31.7822H19.84V30.7693H15.0139V27.4178H20.1453V26.3602H13.4871V36.4146Z" fill="#CCCCCC"/>
<path d="M21.1424 36.4146H22.7213L23.6076 33.6218H27.607L28.4858 36.4146H30.0573L26.6909 26.3453H24.5088L21.1424 36.4146ZM23.8683 32.594L25.5961 27.2465H25.6185L27.3463 32.594H23.8683Z" fill="#CCCCCC"/>
<path d="M31.103 36.4146H37.0314V35.3645H32.6223V26.3602H31.103V36.4146Z" fill="#CCCCCC"/>
<path d="M38.3031 36.4146H44.9613V35.3571H39.8298V31.7822H44.656V30.7693H39.8298V27.4178H44.9613V26.3602H38.3031V36.4146Z" fill="#CCCCCC"/>
<path d="M46.4057 36.4146H47.925V32.0801H51.2541C52.2472 32.0801 52.9199 31.8095 53.2725 31.2683C53.625 30.7221 53.8013 30.0493 53.8013 29.25C53.8013 28.4456 53.63 27.7629 53.2874 27.2018C52.9448 26.6408 52.2869 26.3602 51.3137 26.3602H46.4057V36.4146ZM52.2298 36.4146H53.8832L51.7531 31.5811L50.2338 31.6779L52.2298 36.4146ZM47.925 31.1193V27.4178H50.8296C51.3808 27.4178 51.7581 27.5866 51.9617 27.9243C52.1702 28.2619 52.2745 28.7112 52.2745 29.2723C52.2745 29.8334 52.1702 30.2827 51.9617 30.6203C51.7581 30.953 51.3808 31.1193 50.8296 31.1193H47.925Z" fill="#CCCCCC"/>
<path d="M58.9456 36.4817C60.4054 36.4817 61.4208 36.2061 61.9917 35.655C62.5627 35.1038 62.8482 34.4261 62.8482 33.6218C62.8482 32.7727 62.5851 32.1744 62.0588 31.8269C61.5325 31.4743 60.6412 31.1442 59.3851 30.8363C58.4814 30.6178 57.7739 30.3845 57.2625 30.1362C56.756 29.888 56.5028 29.4734 56.5028 28.8925C56.5028 28.4307 56.7113 28.0558 57.1284 27.7679C57.5455 27.4749 58.1413 27.3284 58.9159 27.3284C59.6755 27.3284 60.2639 27.4997 60.681 27.8423C61.103 28.18 61.314 28.9024 61.314 30.0096H62.8408C62.8408 28.7385 62.5553 27.8001 61.9843 27.1944C61.4183 26.5837 60.4004 26.2783 58.9307 26.2783C57.4909 26.2783 56.4805 26.5514 55.8995 27.0976C55.3186 27.6388 55.0282 28.2917 55.0282 29.0563C55.0282 29.8905 55.2913 30.4937 55.8176 30.8661C56.3439 31.2385 57.2203 31.5761 58.4467 31.879C59.3652 32.1024 60.0777 32.3333 60.5841 32.5716C61.0906 32.81 61.3438 33.2295 61.3438 33.8303C61.3438 34.3218 61.1353 34.7116 60.7182 34.9996C60.3061 35.2876 59.7128 35.4315 58.9382 35.4315C58.1587 35.4315 57.5653 35.2602 57.1582 34.9177C56.7511 34.5701 56.5475 33.8278 56.5475 32.6908H55.0207C55.0207 34.0264 55.3012 34.9921 55.8623 35.5879C56.4283 36.1838 57.4561 36.4817 58.9456 36.4817Z" fill="#CCCCCC"/>
<path d="M64.254 36.4146H65.7733V31.7822H70.2866V36.4146H71.806V26.3602H70.2866V30.7246H65.7733V26.3602H64.254V36.4146Z" fill="#CCCCCC"/>
<path d="M73.8572 36.4146H75.3765V26.3602H73.8572V36.4146Z" fill="#CCCCCC"/>
<path d="M77.3456 36.4146H78.865V33.4802H81.8068C82.919 33.4802 83.6663 33.1426 84.0486 32.4674C84.4359 31.7921 84.6295 30.9431 84.6295 29.9202C84.6295 28.9024 84.4359 28.0558 84.0486 27.3806C83.6663 26.7004 82.919 26.3602 81.8068 26.3602H77.3456V36.4146ZM78.865 32.4227V27.4178H81.3451C82.0005 27.4178 82.4597 27.6338 82.7229 28.0658C82.986 28.4928 83.1176 29.1109 83.1176 29.9202C83.1176 30.7345 82.986 31.3552 82.7229 31.7822C82.4597 32.2092 82.0005 32.4227 81.3451 32.4227H78.865Z" fill="#CCCCCC"/>
</svg>
